<svg xmlns="http://www.w3.org/2000/svg" width="100" height="100" viewBox="0 0 100 100"><path d="M68.75,0H31.25A31.253,31.253,0,0,0,0,31.25v37.5A31.253,31.253,0,0,0,31.25,100h37.5A31.253,31.253,0,0,0,100,68.75V31.25A31.253,31.253,0,0,0,68.75,0ZM90.625,68.75A21.9,21.9,0,0,1,68.75,90.625H31.25A21.9,21.9,0,0,1,9.375,68.75V31.25A21.9,21.9,0,0,1,31.25,9.375h37.5A21.9,21.9,0,0,1,90.625,31.25Z" fill="#717c9a"/><g transform="translate(24.871 24.871)"><path d="M153.129,128a25.129,25.129,0,1,0,25.129,25.129A25.13,25.13,0,0,0,153.129,128Zm0,40.834a15.705,15.705,0,1,1,15.705-15.705A15.727,15.727,0,0,1,153.129,168.834Z" transform="translate(-128 -128)" fill="#717c9a"/></g><g transform="translate(73.517 19.786)"><circle cx="3.348" cy="3.348" r="3.348" fill="#717c9a"/></g></svg>